<?xml version="1.0" encoding="UTF-8" standalone="no"?>
<svg
   xmlns:dc="http://purl.org/dc/elements/1.1/"
   xmlns:cc="http://creativecommons.org/ns#"
   xmlns:rdf="http://www.w3.org/1999/02/22-rdf-syntax-ns#"
   xmlns:svg="http://www.w3.org/2000/svg"
   xmlns="http://www.w3.org/2000/svg"
   xmlns:sodipodi="http://sodipodi.sourceforge.net/DTD/sodipodi-0.dtd"
   xmlns:inkscape="http://www.inkscape.org/namespaces/inkscape"
   id="elnSsbQXecT1"
   viewBox="0 0 79.374998 26.458334"
   shape-rendering="geometricPrecision"
   text-rendering="geometricPrecision"
   version="1.1"
   sodipodi:docname="gopher-running.svg"
   inkscape:version="0.92.5 (2060ec1f9f, 2020-04-08)">
  <title
     id="title1309">Running Gopher</title>
  <metadata
     id="metadata1307">
    <rdf:RDF>
      <cc:Work
         rdf:about="">
        <dc:format>image/svg+xml</dc:format>
        <dc:type
           rdf:resource="http://purl.org/dc/dcmitype/StillImage" />
        <dc:title>Running Gopher</dc:title>
        <dc:date>27-12-2021</dc:date>
        <dc:creator>
          <cc:Agent>
            <dc:title>Artem Sedykh</dc:title>
          </cc:Agent>
        </dc:creator>
      </cc:Work>
    </rdf:RDF>
  </metadata>
  <defs
     id="defs1305" />
  <sodipodi:namedview
     pagecolor="#ffffff"
     bordercolor="#666666"
     borderopacity="1"
     objecttolerance="10"
     gridtolerance="10"
     guidetolerance="10"
     inkscape:pageopacity="0"
     inkscape:pageshadow="2"
     inkscape:window-width="640"
     inkscape:window-height="504"
     id="namedview1303"
     showgrid="false"
     inkscape:zoom="4.5102362"
     inkscape:cx="39.6875"
     inkscape:cy="-13.376978"
     inkscape:window-x="485"
     inkscape:window-y="101"
     inkscape:window-maximized="0"
     inkscape:current-layer="elnSsbQXecT1" />
  <style
     id="style1264"><![CDATA[#elnSsbQXecT2_to {animation: elnSsbQXecT2_to__to 400ms linear infinite normal forwards}@keyframes elnSsbQXecT2_to__to { 0% {transform: translate(13.637968px,14.048027px)} 25% {transform: translate(13.637968px,15.048027px)} 50% {transform: translate(13.637968px,14.048027px)} 75% {transform: translate(13.637968px,15.048027px)} 100% {transform: translate(13.637968px,14.048027px)}} #elnSsbQXecT3_tr {animation: elnSsbQXecT3_tr__tr 400ms linear infinite normal forwards}@keyframes elnSsbQXecT3_tr__tr { 0% {transform: translate(16.318595px,28.31626px) rotate(150.020945deg)} 50% {transform: translate(16.318595px,28.31626px) rotate(-10.117158deg)} 100% {transform: translate(16.318595px,28.31626px) rotate(150.020945deg)}} #elnSsbQXecT3_tk {animation: elnSsbQXecT3_tk__tk 400ms linear infinite normal forwards}@keyframes elnSsbQXecT3_tk__tk { 0% {transform: skewX(-44deg) skewY(12deg)} 25% {transform: skewX(-48deg) skewY(20deg)} 50% {transform: skewX(0deg) skewY(0deg)} 75% {transform: skewX(0deg) skewY(0deg)} 100% {transform: skewX(-44deg) skewY(12deg)}} #elnSsbQXecT4_tr {animation: elnSsbQXecT4_tr__tr 400ms linear infinite normal forwards}@keyframes elnSsbQXecT4_tr__tr { 0% {transform: translate(12.523896px,29.61206px) rotate(0deg)} 50% {transform: translate(12.523896px,29.61206px) rotate(111.061677deg)} 100% {transform: translate(12.523896px,29.61206px) rotate(0deg)}} #elnSsbQXecT4_tk {animation: elnSsbQXecT4_tk__tk 400ms linear infinite normal forwards}@keyframes elnSsbQXecT4_tk__tk { 0% {transform: skewX(0deg) skewY(0deg)} 50% {transform: skewX(0deg) skewY(0deg)} 75% {transform: skewX(-44deg) skewY(0deg)} 100% {transform: skewX(0deg) skewY(0deg)}} #elnSsbQXecT5_tr {animation: elnSsbQXecT5_tr__tr 400ms linear infinite normal forwards}@keyframes elnSsbQXecT5_tr__tr { 0% {transform: translate(17.530397px,22.31067px) rotate(0deg)} 50% {transform: translate(17.530397px,22.31067px) rotate(77.995173deg)} 100% {transform: translate(17.530397px,22.31067px) rotate(0deg)}} #elnSsbQXecT20_tr {animation: elnSsbQXecT20_tr__tr 400ms linear infinite normal forwards}@keyframes elnSsbQXecT20_tr__tr { 0% {transform: translate(11.231408px,23.683714px) rotate(0deg)} 50% {transform: translate(11.231408px,23.683714px) rotate(-53.318599deg)} 100% {transform: translate(11.231408px,23.683714px) rotate(0deg)}} #elnSsbQXecT21_to {animation: elnSsbQXecT21_to__to 400ms linear infinite normal forwards}@keyframes elnSsbQXecT21_to__to { 0% {transform: translate(64.951023px,14.737163px)} 100% {transform: translate(54.951023px,14.74px)}} #elnSsbQXecT22_ts {animation: elnSsbQXecT22_ts__ts 400ms linear infinite normal forwards}@keyframes elnSsbQXecT22_ts__ts { 0% {transform: translate(36.635433px,15.651194px) scale(1.465784,1.465784)} 100% {transform: translate(36.635433px,15.651194px) scale(0,0)}} #elnSsbQXecT26_ts {animation: elnSsbQXecT26_ts__ts 400ms linear infinite normal forwards}@keyframes elnSsbQXecT26_ts__ts { 0% {transform: translate(85.392992px,15.65px) scale(0,0)} 100% {transform: translate(85.392992px,15.65px) scale(1.465784,1.465784)}}]]></style>
  <g
     id="elnSsbQXecT2_to"
     transform="translate(13.637968,14.048027)">
    <g
       id="elnSsbQXecT2"
       transform="rotate(12.299076) translate(-12.383354,-21.505587)">
      <g
         id="elnSsbQXecT3_tr"
         transform="translate(16.318595,28.31626) rotate(150.020945)">
        <g
           id="elnSsbQXecT3_tk"
           transform="skewX(-44) skewY(12)">
          <path
             id="elnSsbQXecT3"
             d="M15.775609,28.388945C15.775609,28.388945,18.823566,28.59661,18.630244,29.343288C18.43692,30.089967,15.49453,29.05311,15.49453,29.05311"
             transform="translate(-15.860333,-28.794025)"
             fill="rgb(195,166,127)"
             stroke="rgb(0,0,0)"
             stroke-width="0.264583" />
        </g>
      </g>
      <g
         id="elnSsbQXecT4_tr"
         transform="translate(12.523896,29.61206) rotate(0)">
        <g
           id="elnSsbQXecT4_tk"
           transform="skewX(0) skewY(0)">
          <path
             id="elnSsbQXecT4"
             d="M12.693902,29.542232C12.693902,29.542232,15.409247,30.942257,14.935518,31.550929C14.461788,32.159604,12.172362,30.040344,12.172362,30.040344"
             transform="translate(-12.370022,-29.805227)"
             fill="rgb(246,210,160)"
             stroke="rgb(0,0,0)"
             stroke-width="0.264583" />
        </g>
      </g>
      <g
         id="elnSsbQXecT5_tr"
         transform="translate(17.530397,22.31067) rotate(0)">
        <path
           id="elnSsbQXecT5"
           d="M17.838437,22.06747C17.838437,22.06747,20.460074,23.63597,19.948897,24.213551C19.43772,24.791135,17.286518,22.531695,17.286518,22.531695"
           transform="translate(-17.530397,-22.31067)"
           fill="rgb(204,173,131)"
           stroke="rgb(0,0,0)"
           stroke-width="0.264583" />
      </g>
      <g
         id="elnSsbQXecT6">
        <ellipse
           id="elnSsbQXecT7"
           rx="0.433677"
           ry="0.572103"
           transform="matrix(0.992259 -0.124186 0.124806 0.992181 19.792207 15.664746)"
           fill="rgb(0,0,0)"
           stroke="none"
           stroke-width="0.299053" />
        <path
           id="elnSsbQXecT8"
           d="M16.960448,13.673842C16.960448,13.673842,18.826391,12.854799,19.631547,15.359458C20.46033,17.934978,18.072769,19.070098,18.072769,19.070098C17.701851,17.271227,15.826362,14.22945,16.960448,13.673842Z"
           fill="rgb(255,255,255)"
           stroke="rgb(0,0,0)"
           stroke-width="0.264583" />
        <path
           id="elnSsbQXecT9"
           d="M13.772507,11.684189C13.800247,11.566394,13.812487,11.44182,13.961495,11.377083C14.327424,11.245459,14.95986,11.629734,15.024553,11.8968C15.050843,11.9899,14.961513,12.077413,14.859189,12.109412"
           fill="rgb(160,221,231)"
           stroke="rgb(0,0,0)"
           stroke-width="0.264583"
           stroke-linecap="round" />
        <path
           id="elnSsbQXecT10"
           d="M10.866815,30.748362C10.866815,30.748362,15.638765,30.323139,17.434152,28.102529C19.229538,25.881919,18.237351,16.007291,18.237351,16.007291C18.237351,16.007291,16.34747,11.188095,11.764509,11.471577C7.181548,11.755059,5.905878,13.455952,5.291667,15.676562C4.677455,17.897172,4.346726,19.739806,5.622396,21.818675C6.898065,23.897544,5.679981,25.175487,5.764137,26.732366C5.858631,28.480505,9.260417,30.701115,10.866815,30.748362Z"
           fill="rgb(116,205,221)"
           stroke="rgb(0,0,0)"
           stroke-width="0.264583" />
        <path
           id="elnSsbQXecT11"
           d="M9.978276,12.220845C9.937236,12.222645,9.894876,12.228045,9.850635,12.236345C9.404868,12.318115,9.006704,12.755665,9.084274,13.322584C9.199634,13.905759,9.832839,14.10332,10.28913,14.296349C10.34631,14.05106,10.31331,13.379915,11.036093,12.878683C10.926673,12.770004,10.827896,12.670602,10.733786,12.583611C10.482279,12.351135,10.265594,12.20826,9.978276,12.220843Z"
           fill="rgb(160,221,231)"
           stroke="rgb(0,0,0)"
           stroke-width="0.265"
           stroke-linecap="round" />
        <path
           id="elnSsbQXecT12"
           d="M10.23344,13.072162C10.23344,13.072162,10.092111,12.885423,9.967901,12.821151C9.73944,12.702937,9.611202,13.091245,9.644193,13.154338C9.719233,13.297844,10.220907,13.492844,10.42208,13.532699"
           fill="none"
           stroke="rgb(0,0,0)"
           stroke-width="0.265"
           stroke-linecap="round" />
        <path
           id="elnSsbQXecT13"
           d="M18.072769,19.070098C18.072769,19.070098,18.289925,19.688158,18.42356,19.821798C18.557195,19.955428,19.041621,19.821798,19.125143,19.638048C19.208663,19.454298,18.80776,18.802828,18.80776,18.802828"
           fill="rgb(255,255,255)"
           stroke="rgb(0,0,0)"
           stroke-width="0.264583" />
        <path
           id="elnSsbQXecT14"
           d="M18.80776,18.802828C18.80776,18.802828,19.024916,19.420888,19.158551,19.554528C19.263842,19.568498,19.425381,19.402976,19.465494,19.343633C19.509344,19.264283,19.175255,18.568967,19.175255,18.568967"
           fill="rgb(255,255,255)"
           stroke="rgb(0,0,0)"
           stroke-width="0.264583" />
        <path
           id="elnSsbQXecT15"
           d="M17.05803,18.54983C17.05803,18.54983,17.279639,19.432603,18.71176,18.766987C19.115322,18.579421,20.033381,18.129072,19.818533,17.493463C19.452278,16.605748,18.76056,16.873678,18.461195,16.962917C17.392117,17.313709,16.924395,17.831543,17.05803,18.54983Z"
           fill="rgb(246,210,160)"
           stroke="rgb(0,0,0)"
           stroke-width="0.264583" />
        <ellipse
           id="elnSsbQXecT16"
           rx="0.801809"
           ry="0.626413"
           transform="matrix(0.928701 -0.370829 0.370829 0.928701 18.401458 16.739947)"
           fill="rgb(0,0,0)"
           stroke="rgb(0,0,0)"
           stroke-width="0.265"
           stroke-linecap="round" />
        <circle
           id="elnSsbQXecT17"
           r="3.10649"
           transform="matrix(1 0 0 1 13.3355 17.3184)"
           fill="rgb(255,255,255)"
           stroke="rgb(0,0,0)"
           stroke-width="0.264583" />
        <ellipse
           id="elnSsbQXecT18"
           rx="0.590588"
           ry="0.779576"
           transform="matrix(1 0 0 1 14.8356 17.1412)"
           fill="rgb(0,0,0)"
           stroke="none"
           stroke-width="0.40738" />
        <path
           id="elnSsbQXecT19"
           d="M5.858631,27.322953C5.858631,27.322953,4.677455,27.275703,4.559338,27.677306C4.44122,28.078906,4.84282,28.386011,5.173549,28.433258C5.504278,28.480508,6.331101,28.008035,6.331101,28.008035Z"
           fill="rgb(160,221,231)"
           stroke="rgb(0,0,0)"
           stroke-width="0.264583" />
      </g>
      <g
         id="elnSsbQXecT20_tr"
         transform="translate(11.231408,23.683714) rotate(0)">
        <path
           id="elnSsbQXecT20"
           d="M11.551374,23.616352C11.551374,23.616352,12.764295,26.420276,12.012087,26.590818C11.259877,26.761361,10.83226,23.671074,10.83226,23.671074Z"
           transform="translate(-11.231408,-23.683714)"
           fill="rgb(246,210,160)"
           stroke="rgb(0,0,0)"
           stroke-width="0.264583" />
      </g>
    </g>
  </g>
  <g
     id="elnSsbQXecT21_to"
     transform="translate(64.951023,14.737163)">
    <g
       id="elnSsbQXecT21"
       transform="translate(-65.951023,-15.737163)">
      <g
         id="elnSsbQXecT22_ts"
         transform="translate(36.635433,15.651194) scale(1.465784,1.465784)">
        <path
           id="elnSsbQXecT22"
           d="M37.634403,30.58724C37.570513,30.52335,37.567733,30.476131,37.567733,29.453933C37.567733,28.431735,37.570533,28.384514,37.634403,28.320627C37.694723,28.260307,37.745512,28.253957,38.167724,28.253957L38.634379,28.253957L38.634379,27.787306C38.634379,27.163877,38.610939,27.187321,39.234365,27.187321L39.70102,27.187321L39.70102,26.720665C39.70102,26.298453,39.70742,26.247661,39.76769,26.187345C39.83139,26.123645,39.878798,26.120675,40.834331,26.120675L41.834307,26.120675L41.834307,25.120699C41.834307,24.165167,41.837307,24.11776,41.900977,24.054058C41.962087,23.992948,42.012085,23.987388,42.500963,23.987388C43.201359,23.987388,43.167613,23.957018,43.167613,24.587374L43.167613,25.054029L43.634269,25.054029C44.264626,25.054029,44.234255,25.020289,44.234255,25.72068C44.234255,26.209557,44.228655,26.259556,44.167585,26.320666C44.103885,26.384366,44.056476,26.387336,43.100943,26.387336L42.100967,26.387336L42.100967,27.387312C42.100967,28.342845,42.097967,28.390251,42.034297,28.453953C41.973977,28.514273,41.923189,28.520623,41.500977,28.520623L41.034321,28.520623L41.034321,28.987279C41.034321,29.409491,41.028021,29.460283,40.967651,29.520599C40.907331,29.580919,40.856543,29.587269,40.43433,29.587269L39.967681,29.587269L39.967681,30.053925C39.967681,30.476137,39.961381,30.52693,39.901011,30.587246C39.837121,30.651136,39.789902,30.653916,38.767704,30.653916C37.745507,30.653916,37.698286,30.651116,37.634398,30.587246Z"
           transform="translate(-40.901114,-27.320535)"
           fill="rgb(219,86,32)"
           stroke="none"
           stroke-width="0.033333" />
      </g>
      <path
         id="elnSsbQXecT23"
         d="M37.634403,30.58724C37.570513,30.52335,37.567733,30.476131,37.567733,29.453933C37.567733,28.431735,37.570533,28.384514,37.634403,28.320627C37.694723,28.260307,37.745512,28.253957,38.167724,28.253957L38.634379,28.253957L38.634379,27.787306C38.634379,27.163877,38.610939,27.187321,39.234365,27.187321L39.70102,27.187321L39.70102,26.720665C39.70102,26.298453,39.70742,26.247661,39.76769,26.187345C39.83139,26.123645,39.878798,26.120675,40.834331,26.120675L41.834307,26.120675L41.834307,25.120699C41.834307,24.165167,41.837307,24.11776,41.900977,24.054058C41.962087,23.992948,42.012085,23.987388,42.500963,23.987388C43.201359,23.987388,43.167613,23.957018,43.167613,24.587374L43.167613,25.054029L43.634269,25.054029C44.264626,25.054029,44.234255,25.020289,44.234255,25.72068C44.234255,26.209557,44.228655,26.259556,44.167585,26.320666C44.103885,26.384366,44.056476,26.387336,43.100943,26.387336L42.100967,26.387336L42.100967,27.387312C42.100967,28.342845,42.097967,28.390251,42.034297,28.453953C41.973977,28.514273,41.923189,28.520623,41.500977,28.520623L41.034321,28.520623L41.034321,28.987279C41.034321,29.409491,41.028021,29.460283,40.967651,29.520599C40.907331,29.580919,40.856543,29.587269,40.43433,29.587269L39.967681,29.587269L39.967681,30.053925C39.967681,30.476137,39.961381,30.52693,39.901011,30.587246C39.837121,30.651136,39.789902,30.653916,38.767704,30.653916C37.745507,30.653916,37.698286,30.651116,37.634398,30.587246Z"
         transform="matrix(1.465784 0 0 1.465784 -13.646662 -24.396003)"
         fill="rgb(219,86,32)"
         stroke="none"
         stroke-width="0.033333" />
      <path
         id="elnSsbQXecT24"
         d="M37.634403,30.58724C37.570513,30.52335,37.567733,30.476131,37.567733,29.453933C37.567733,28.431735,37.570533,28.384514,37.634403,28.320627C37.694723,28.260307,37.745512,28.253957,38.167724,28.253957L38.634379,28.253957L38.634379,27.787306C38.634379,27.163877,38.610939,27.187321,39.234365,27.187321L39.70102,27.187321L39.70102,26.720665C39.70102,26.298453,39.70742,26.247661,39.76769,26.187345C39.83139,26.123645,39.878798,26.120675,40.834331,26.120675L41.834307,26.120675L41.834307,25.120699C41.834307,24.165167,41.837307,24.11776,41.900977,24.054058C41.962087,23.992948,42.012085,23.987388,42.500963,23.987388C43.201359,23.987388,43.167613,23.957018,43.167613,24.587374L43.167613,25.054029L43.634269,25.054029C44.264626,25.054029,44.234255,25.020289,44.234255,25.72068C44.234255,26.209557,44.228655,26.259556,44.167585,26.320666C44.103885,26.384366,44.056476,26.387336,43.100943,26.387336L42.100967,26.387336L42.100967,27.387312C42.100967,28.342845,42.097967,28.390251,42.034297,28.453953C41.973977,28.514273,41.923189,28.520623,41.500977,28.520623L41.034321,28.520623L41.034321,28.987279C41.034321,29.409491,41.028021,29.460283,40.967651,29.520599C40.907331,29.580919,40.856543,29.587269,40.43433,29.587269L39.967681,29.587269L39.967681,30.053925C39.967681,30.476137,39.961381,30.52693,39.901011,30.587246C39.837121,30.651136,39.789902,30.653916,38.767704,30.653916C37.745507,30.653916,37.698286,30.651116,37.634398,30.587246Z"
         transform="matrix(1.465784 0 0 1.465784 -3.874798 -24.396003)"
         fill="rgb(219,86,32)"
         stroke="none"
         stroke-width="0.033333" />
      <path
         id="elnSsbQXecT25"
         d="M37.634403,30.58724C37.570513,30.52335,37.567733,30.476131,37.567733,29.453933C37.567733,28.431735,37.570533,28.384514,37.634403,28.320627C37.694723,28.260307,37.745512,28.253957,38.167724,28.253957L38.634379,28.253957L38.634379,27.787306C38.634379,27.163877,38.610939,27.187321,39.234365,27.187321L39.70102,27.187321L39.70102,26.720665C39.70102,26.298453,39.70742,26.247661,39.76769,26.187345C39.83139,26.123645,39.878798,26.120675,40.834331,26.120675L41.834307,26.120675L41.834307,25.120699C41.834307,24.165167,41.837307,24.11776,41.900977,24.054058C41.962087,23.992948,42.012085,23.987388,42.500963,23.987388C43.201359,23.987388,43.167613,23.957018,43.167613,24.587374L43.167613,25.054029L43.634269,25.054029C44.264626,25.054029,44.234255,25.020289,44.234255,25.72068C44.234255,26.209557,44.228655,26.259556,44.167585,26.320666C44.103885,26.384366,44.056476,26.387336,43.100943,26.387336L42.100967,26.387336L42.100967,27.387312C42.100967,28.342845,42.097967,28.390251,42.034297,28.453953C41.973977,28.514273,41.923189,28.520623,41.500977,28.520623L41.034321,28.520623L41.034321,28.987279C41.034321,29.409491,41.028021,29.460283,40.967651,29.520599C40.907331,29.580919,40.856543,29.587269,40.43433,29.587269L39.967681,29.587269L39.967681,30.053925C39.967681,30.476137,39.961381,30.52693,39.901011,30.587246C39.837121,30.651136,39.789902,30.653916,38.767704,30.653916C37.745507,30.653916,37.698286,30.651116,37.634398,30.587246Z"
         transform="matrix(1.465784 0 0 1.465784 5.897066 -24.396003)"
         fill="rgb(219,86,32)"
         stroke="none"
         stroke-width="0.033333" />
      <g
         id="elnSsbQXecT26_ts"
         transform="translate(85.392992,15.65) scale(0,0)">
        <path
           id="elnSsbQXecT26"
           d="M37.634403,30.58724C37.570513,30.52335,37.567733,30.476131,37.567733,29.453933C37.567733,28.431735,37.570533,28.384514,37.634403,28.320627C37.694723,28.260307,37.745512,28.253957,38.167724,28.253957L38.634379,28.253957L38.634379,27.787306C38.634379,27.163877,38.610939,27.187321,39.234365,27.187321L39.70102,27.187321L39.70102,26.720665C39.70102,26.298453,39.70742,26.247661,39.76769,26.187345C39.83139,26.123645,39.878798,26.120675,40.834331,26.120675L41.834307,26.120675L41.834307,25.120699C41.834307,24.165167,41.837307,24.11776,41.900977,24.054058C41.962087,23.992948,42.012085,23.987388,42.500963,23.987388C43.201359,23.987388,43.167613,23.957018,43.167613,24.587374L43.167613,25.054029L43.634269,25.054029C44.264626,25.054029,44.234255,25.020289,44.234255,25.72068C44.234255,26.209557,44.228655,26.259556,44.167585,26.320666C44.103885,26.384366,44.056476,26.387336,43.100943,26.387336L42.100967,26.387336L42.100967,27.387312C42.100967,28.342845,42.097967,28.390251,42.034297,28.453953C41.973977,28.514273,41.923189,28.520623,41.500977,28.520623L41.034321,28.520623L41.034321,28.987279C41.034321,29.409491,41.028021,29.460283,40.967651,29.520599C40.907331,29.580919,40.856543,29.587269,40.43433,29.587269L39.967681,29.587269L39.967681,30.053925C39.967681,30.476137,39.961381,30.52693,39.901011,30.587246C39.837121,30.651136,39.789902,30.653916,38.767704,30.653916C37.745507,30.653916,37.698286,30.651116,37.634398,30.587246Z"
           transform="translate(-40.901114,-27.320535)"
           fill="rgb(219,86,32)"
           stroke="none"
           stroke-width="0.033333" />
      </g>
      <path
         id="elnSsbQXecT27"
         d="M37.634403,30.58724C37.570513,30.52335,37.567733,30.476131,37.567733,29.453933C37.567733,28.431735,37.570533,28.384514,37.634403,28.320627C37.694723,28.260307,37.745512,28.253957,38.167724,28.253957L38.634379,28.253957L38.634379,27.787306C38.634379,27.163877,38.610939,27.187321,39.234365,27.187321L39.70102,27.187321L39.70102,26.720665C39.70102,26.298453,39.70742,26.247661,39.76769,26.187345C39.83139,26.123645,39.878798,26.120675,40.834331,26.120675L41.834307,26.120675L41.834307,25.120699C41.834307,24.165167,41.837307,24.11776,41.900977,24.054058C41.962087,23.992948,42.012085,23.987388,42.500963,23.987388C43.201359,23.987388,43.167613,23.957018,43.167613,24.587374L43.167613,25.054029L43.634269,25.054029C44.264626,25.054029,44.234255,25.020289,44.234255,25.72068C44.234255,26.209557,44.228655,26.259556,44.167585,26.320666C44.103885,26.384366,44.056476,26.387336,43.100943,26.387336L42.100967,26.387336L42.100967,27.387312C42.100967,28.342845,42.097967,28.390251,42.034297,28.453953C41.973977,28.514273,41.923189,28.520623,41.500977,28.520623L41.034321,28.520623L41.034321,28.987279C41.034321,29.409491,41.028021,29.460283,40.967651,29.520599C40.907331,29.580919,40.856543,29.587269,40.43433,29.587269L39.967681,29.587269L39.967681,30.053925C39.967681,30.476137,39.961381,30.52693,39.901011,30.587246C39.837121,30.651136,39.789902,30.653916,38.767704,30.653916C37.745507,30.653916,37.698286,30.651116,37.634398,30.587246Z"
         transform="matrix(1.465784 0 0 1.465784 15.66893 -24.396003)"
         fill="rgb(219,86,32)"
         stroke="none"
         stroke-width="0.033333" />
    </g>
  </g>
</svg>
